<?xml version="1.0" standalone="no"?>
<!DOCTYPE svg PUBLIC "-//W3C//DTD SVG 20010904//EN"
 "http://www.w3.org/TR/2001/REC-SVG-20010904/DTD/svg10.dtd">
<svg version="1.0" xmlns="http://www.w3.org/2000/svg"
 width="300.000000pt" height="450.000000pt" viewBox="0 0 300.000000 450.000000"
 preserveAspectRatio="xMidYMid meet">
<metadata>
Created by potrace 1.10, written by Peter Selinger 2001-2011
</metadata>
<g transform="translate(0.000000,450.000000) scale(0.100000,-0.100000)"
fill="#000000" stroke="none">
<path d="M748 2986 c3 -59 1 -69 -43 -149 -26 -48 -44 -91 -40 -97 3 -5 21
-10 40 -10 47 0 67 -39 131 -249 l52 -175 -41 -36 -41 -37 46 -149 c39 -127
44 -152 34 -169 -44 -70 -46 -59 23 -129 63 -64 63 -64 46 -89 -16 -25 -14
-47 5 -47 7 0 324 381 375 452 24 33 25 33 69 7 l34 -20 -123 -194 c-129 -204
-143 -229 -125 -240 18 -11 30 5 149 194 63 99 118 178 123 175 4 -3 8 -41 8
-85 0 -76 -2 -85 -40 -149 -22 -38 -40 -77 -40 -87 0 -12 29 -34 94 -70 52
-29 101 -53 109 -53 8 0 28 23 45 50 19 31 38 50 50 50 40 0 87 76 78 125 -4
19 -2 36 4 40 5 3 10 16 10 28 0 17 -22 34 -99 80 -55 31 -105 57 -111 57 -6
0 -21 -17 -33 -37 l-22 -38 -6 50 c-11 84 -26 125 -53 146 -31 24 -34 59 -7
76 21 13 23 4 -26 175 -4 13 3 17 28 20 23 2 35 9 37 21 3 14 -4 17 -35 17
-33 0 -41 5 -61 36 l-24 36 32 33 c30 31 33 55 7 55 -6 0 -25 -14 -43 -31 -27
-26 -37 -30 -63 -24 -29 6 -30 9 -33 63 -2 43 -7 57 -18 57 -11 0 -16 -14 -18
-56 -3 -55 -4 -57 -34 -63 -27 -5 -37 -1 -64 25 -20 20 -39 29 -48 26 -23 -9
-20 -22 15 -56 27 -28 29 -33 15 -46 -8 -8 -18 -24 -21 -35 -5 -16 -15 -20
-49 -20 l-43 0 -63 133 c-34 72 -64 138 -67 145 -3 7 3 12 16 12 31 0 26 23
-25 118 -43 78 -46 88 -42 143 l4 59 -40 0 -41 0 3 -64z m32 -156 c7 -13 21
-20 38 -20 27 0 52 -15 52 -32 0 -4 -36 -8 -80 -8 -44 0 -80 3 -80 8 0 14 40
72 50 72 5 0 14 -9 20 -20z m133 -298 l68 -147 -28 -24 c-26 -22 -27 -23 -34
-5 -17 43 -89 295 -89 309 0 36 19 6 83 -133z m307 -35 c0 -34 -83 -108 -102
-89 -6 6 5 25 34 56 44 46 68 57 68 33z m90 -4 c33 -23 69 -65 70 -80 0 -24
-23 -13 -66 31 -58 57 -60 88 -4 49z m9 -115 c21 -15 22 -21 16 -68 -14 -103
-93 -146 -149 -79 -20 24 -26 41 -26 80 0 45 4 54 43 92 l42 42 25 -25 c14
-14 36 -33 49 -42z m-249 0 c0 -44 -15 -50 -33 -13 l-17 35 25 0 c19 0 25 -5
25 -22z m333 -81 c15 -55 14 -58 -5 -68 -14 -8 -18 -17 -14 -33 5 -20 2 -23
-24 -23 -17 0 -30 2 -30 5 0 2 10 18 23 35 15 23 22 48 24 87 2 82 4 82 26 -3z
m-283 5 c0 -27 8 -62 19 -82 24 -46 34 -80 24 -80 -5 0 -24 31 -42 69 -27 55
-32 75 -27 105 10 52 26 44 26 -12z m-79 -35 c63 -124 110 -199 124 -193 8 3
28 -2 44 -10 l30 -15 -98 -118 c-54 -65 -107 -132 -119 -147 l-21 -29 -50 50
-50 50 55 87 c31 48 53 92 49 98 -12 19 -34 10 -52 -20 -9 -16 -20 -30 -23
-30 -11 0 -73 231 -64 239 92 84 127 111 135 106 5 -4 23 -34 40 -68z m254
-129 c-8 -25 -32 -48 -51 -48 -15 0 -44 38 -44 57 0 9 16 13 51 13 48 0 50 -1
44 -22z m403 -245 c37 -19 42 -43 8 -43 -46 0 -96 -72 -83 -122 5 -19 -26 -98
-39 -98 -10 0 -134 71 -139 81 -3 4 1 19 8 31 8 13 40 67 71 121 l57 98 42
-26 c23 -15 57 -34 75 -42z m22 -117 c0 -26 -34 -61 -49 -51 -17 10 -13 30 10
59 23 29 39 26 39 -8z"/>
</g>
</svg>
