<?xml version="1.0" standalone="no"?>
<!DOCTYPE svg PUBLIC "-//W3C//DTD SVG 20010904//EN"
 "http://www.w3.org/TR/2001/REC-SVG-20010904/DTD/svg10.dtd">
<svg version="1.0" xmlns="http://www.w3.org/2000/svg"
 width="300.000000pt" height="300.000000pt" viewBox="0 0 300.000000 300.000000"
 preserveAspectRatio="xMidYMid meet">
<metadata>
Created by potrace 1.10, written by Peter Selinger 2001-2011
</metadata>
<g transform="translate(0.000000,300.000000) scale(0.050000,-0.050000)"
fill="#000000" stroke="none">
<path d="M1216 5415 l7 -225 -181 -316 c-232 -404 -232 -414 0 -414 131 0 133
-1 145 -59 6 -32 41 -88 78 -125 49 -48 79 -109 113 -226 160 -556 251 -863
300 -1024 l57 -184 -158 -134 c-86 -74 -157 -142 -157 -151 0 -9 81 -266 179
-570 99 -304 174 -563 167 -575 -7 -12 -53 -84 -103 -159 l-89 -136 242 -244
242 -243 -58 -70 c-56 -66 -82 -180 -42 -180 10 0 32 -5 48 -11 29 -11 144 96
212 199 18 26 125 158 238 294 385 462 453 545 504 610 70 91 269 334 401 489
61 72 125 150 142 175 l31 45 135 -79 c73 -43 138 -82 143 -88 6 -5 -16 -49
-48 -97 -32 -48 -200 -312 -374 -587 -173 -275 -335 -531 -359 -570 -25 -38
-73 -114 -108 -168 -93 -146 -70 -264 44 -220 28 11 17 -7 514 783 289 460
412 640 428 625 12 -13 24 -147 27 -333 l7 -311 -162 -280 c-193 -335 -193
-333 -47 -424 134 -84 152 -86 210 -28 l43 43 -83 72 -83 72 37 60 c20 34 137
236 261 450 123 214 231 397 240 406 9 9 105 -37 214 -102 108 -66 235 -139
282 -163 47 -23 85 -55 85 -70 0 -35 -49 -76 -84 -69 -206 38 -443 -372 -303
-526 26 -29 29 -43 11 -61 -37 -37 -28 -112 15 -135 47 -25 95 -9 122 41 12
23 42 38 73 38 177 0 374 346 288 506 -24 44 -21 58 26 126 84 125 72 166 -73
250 -69 39 -244 140 -389 225 -330 191 -322 191 -427 2 -98 -178 -110 -176
-102 21 6 125 -2 165 -48 268 -44 99 -50 127 -29 152 26 32 -62 135 -136 159
-36 11 -73 83 -93 182 -11 55 -5 64 59 95 101 48 101 54 1 398 -112 384 -114
356 18 356 89 0 114 8 139 43 57 81 11 117 -147 117 -120 0 -140 5 -151 40 -7
21 -43 76 -81 121 -87 104 -89 91 41 219 118 117 131 154 72 208 -50 45 -82
28 -220 -117 l-106 -113 -113 38 -113 37 -6 192 c-6 217 -28 258 -115 218 -47
-21 -49 -29 -49 -218 l-1 -195 -113 -36 -113 -36 -135 134 c-135 134 -135 134
-187 101 -75 -50 -64 -89 63 -217 l114 -115 -42 -46 c-23 -25 -61 -83 -84
-130 l-43 -85 -114 0 c-63 0 -133 -5 -155 -10 -34 -8 -53 20 -129 185 -49 107
-162 348 -252 536 -167 352 -177 389 -100 389 149 0 118 103 -192 625 -54 90
-57 109 -57 325 l0 230 -135 0 -135 0 6 -225z m98 -576 c39 -66 98 -90 183
-73 78 16 193 -118 131 -152 -33 -19 -566 -23 -584 -4 -4 3 26 70 65 148 84
166 141 189 205 81z m206 -395 c0 -30 -48 -64 -90 -64 -42 0 -90 34 -90 64 0
9 41 16 90 16 50 0 90 -7 90 -16z m94 -299 c29 -63 145 -312 260 -553 114
-241 205 -445 202 -453 -3 -8 -53 -52 -111 -97 l-104 -82 -13 55 c-21 91 -226
801 -290 1002 -46 145 -54 194 -36 215 33 41 35 39 92 -87z m1386 -556 c0
-142 -319 -437 -393 -363 -40 41 148 280 271 344 110 57 122 59 122 19z m319
-18 c132 -67 322 -317 276 -363 -39 -39 -263 126 -344 252 -104 162 -88 189
68 111z m-142 -282 c38 -49 113 -118 167 -154 l100 -64 -9 -205 c-21 -456
-449 -596 -643 -211 -51 100 -38 422 18 453 85 47 210 156 244 213 44 75 43
75 123 -32z m-737 -112 c0 -38 -46 -207 -61 -224 -8 -9 -42 40 -76 110 -33 69
-52 131 -43 137 29 18 180 -2 180 -23z m199 -597 c14 -27 46 -77 71 -110 44
-60 87 -250 56 -250 -9 1 -75 115 -147 255 l-131 255 36 140 c56 217 63 215
76 -20 7 -121 24 -242 39 -270z m1048 245 c65 -261 65 -258 4 -273 -71 -18
-99 -80 -72 -157 27 -78 15 -89 -50 -46 -49 32 -54 32 -90 0 -74 -67 -67 20 9
120 91 120 119 224 108 416 -13 225 26 199 91 -60z m-1380 -110 c361 -697 423
-792 492 -755 34 18 52 14 93 -18 27 -21 76 -45 109 -52 77 -17 81 -7 -86
-209 -80 -97 -212 -259 -295 -360 -82 -102 -186 -227 -230 -279 -44 -51 -111
-136 -150 -187 -85 -113 -83 -113 -165 -22 -36 39 -116 121 -178 181 l-114
110 126 203 c69 112 163 261 208 331 75 116 81 133 56 170 -56 85 -106 65
-197 -80 -46 -73 -87 -126 -90 -116 -3 10 -64 202 -136 428 -155 488 -153 454
-35 546 52 40 167 141 255 223 201 188 176 196 337 -114z m967 -501 c-34 -254
-324 -241 -345 16 l-5 60 180 0 180 0 -10 -76z m1622 -1298 c51 -51 -40 -262
-123 -288 -75 -24 -123 55 -82 134 85 167 146 213 205 154z"/>
</g>
</svg>
